<mxfile host="app.diagrams.net" agent="Mozilla/5.0 (Windows NT 10.0; Win64; x64) AppleWebKit/537.36 (KHTML, like Gecko) Chrome/137.0.0.0 Safari/537.36" version="27.1.1">
  <diagram name="Page-1" id="uRKK1xIH7CD04WsVfkaa">
    <mxGraphModel dx="1426" dy="777" grid="1" gridSize="10" guides="1" tooltips="1" connect="1" arrows="1" fold="1" page="1" pageScale="1" pageWidth="850" pageHeight="1100" math="0" shadow="0">
      <root>
        <mxCell id="0" />
        <mxCell id="1" parent="0" />
        <mxCell id="VZAJ2W_UoIGjEGMNmVgp-9" style="edgeStyle=orthogonalEdgeStyle;rounded=0;orthogonalLoop=1;jettySize=auto;html=1;exitX=1;exitY=0.5;exitDx=0;exitDy=0;entryX=0;entryY=0.5;entryDx=0;entryDy=0;" edge="1" parent="1" source="VZAJ2W_UoIGjEGMNmVgp-2" target="VZAJ2W_UoIGjEGMNmVgp-3">
          <mxGeometry relative="1" as="geometry" />
        </mxCell>
        <mxCell id="VZAJ2W_UoIGjEGMNmVgp-2" value="Client" style="swimlane;whiteSpace=wrap;html=1;startSize=20;" vertex="1" parent="1">
          <mxGeometry x="30" y="340" width="110" height="80" as="geometry" />
        </mxCell>
        <mxCell id="VZAJ2W_UoIGjEGMNmVgp-14" value="EventIQ&amp;nbsp;&lt;div&gt;Dashboard&lt;/div&gt;" style="text;html=1;align=center;verticalAlign=middle;resizable=0;points=[];autosize=1;strokeColor=none;fillColor=none;" vertex="1" parent="VZAJ2W_UoIGjEGMNmVgp-2">
          <mxGeometry x="15" y="27" width="80" height="40" as="geometry" />
        </mxCell>
        <mxCell id="VZAJ2W_UoIGjEGMNmVgp-7" style="edgeStyle=orthogonalEdgeStyle;rounded=0;orthogonalLoop=1;jettySize=auto;html=1;exitX=1;exitY=0.5;exitDx=0;exitDy=0;entryX=0;entryY=0.5;entryDx=0;entryDy=0;" edge="1" parent="1" source="VZAJ2W_UoIGjEGMNmVgp-3" target="VZAJ2W_UoIGjEGMNmVgp-4">
          <mxGeometry relative="1" as="geometry" />
        </mxCell>
        <mxCell id="VZAJ2W_UoIGjEGMNmVgp-3" value="Load Balancer" style="rounded=0;whiteSpace=wrap;html=1;" vertex="1" parent="1">
          <mxGeometry x="260" y="270" width="120" height="60" as="geometry" />
        </mxCell>
        <mxCell id="VZAJ2W_UoIGjEGMNmVgp-8" style="edgeStyle=orthogonalEdgeStyle;rounded=0;orthogonalLoop=1;jettySize=auto;html=1;exitX=1;exitY=0.5;exitDx=0;exitDy=0;entryX=0;entryY=0.5;entryDx=0;entryDy=0;" edge="1" parent="1" source="VZAJ2W_UoIGjEGMNmVgp-4" target="VZAJ2W_UoIGjEGMNmVgp-6">
          <mxGeometry relative="1" as="geometry" />
        </mxCell>
        <mxCell id="VZAJ2W_UoIGjEGMNmVgp-31" value="Public Service" style="edgeLabel;html=1;align=center;verticalAlign=middle;resizable=0;points=[];" vertex="1" connectable="0" parent="VZAJ2W_UoIGjEGMNmVgp-8">
          <mxGeometry x="0.2632" y="-3" relative="1" as="geometry">
            <mxPoint as="offset" />
          </mxGeometry>
        </mxCell>
        <mxCell id="VZAJ2W_UoIGjEGMNmVgp-32" style="edgeStyle=orthogonalEdgeStyle;rounded=0;orthogonalLoop=1;jettySize=auto;html=1;exitX=1;exitY=0.5;exitDx=0;exitDy=0;entryX=0;entryY=0.5;entryDx=0;entryDy=0;" edge="1" parent="1" source="VZAJ2W_UoIGjEGMNmVgp-4" target="VZAJ2W_UoIGjEGMNmVgp-30">
          <mxGeometry relative="1" as="geometry" />
        </mxCell>
        <mxCell id="VZAJ2W_UoIGjEGMNmVgp-34" style="edgeStyle=orthogonalEdgeStyle;rounded=0;orthogonalLoop=1;jettySize=auto;html=1;exitX=1;exitY=0.5;exitDx=0;exitDy=0;entryX=0;entryY=0.5;entryDx=0;entryDy=0;" edge="1" parent="1" source="VZAJ2W_UoIGjEGMNmVgp-4" target="VZAJ2W_UoIGjEGMNmVgp-33">
          <mxGeometry relative="1" as="geometry" />
        </mxCell>
        <mxCell id="VZAJ2W_UoIGjEGMNmVgp-47" style="edgeStyle=orthogonalEdgeStyle;rounded=0;orthogonalLoop=1;jettySize=auto;html=1;exitX=1;exitY=0.5;exitDx=0;exitDy=0;entryX=0;entryY=0.5;entryDx=0;entryDy=0;" edge="1" parent="1" source="VZAJ2W_UoIGjEGMNmVgp-4" target="VZAJ2W_UoIGjEGMNmVgp-44">
          <mxGeometry relative="1" as="geometry" />
        </mxCell>
        <mxCell id="VZAJ2W_UoIGjEGMNmVgp-4" value="API Gateway" style="rounded=0;whiteSpace=wrap;html=1;" vertex="1" parent="1">
          <mxGeometry x="410" y="270" width="120" height="60" as="geometry" />
        </mxCell>
        <mxCell id="VZAJ2W_UoIGjEGMNmVgp-25" style="edgeStyle=orthogonalEdgeStyle;rounded=0;orthogonalLoop=1;jettySize=auto;html=1;exitX=1;exitY=0.5;exitDx=0;exitDy=0;entryX=0;entryY=0.5;entryDx=0;entryDy=0;" edge="1" parent="1" source="VZAJ2W_UoIGjEGMNmVgp-6" target="VZAJ2W_UoIGjEGMNmVgp-21">
          <mxGeometry relative="1" as="geometry" />
        </mxCell>
        <mxCell id="VZAJ2W_UoIGjEGMNmVgp-6" value="Ingestion Service" style="rounded=0;whiteSpace=wrap;html=1;" vertex="1" parent="1">
          <mxGeometry x="610" y="140" width="120" height="60" as="geometry" />
        </mxCell>
        <mxCell id="VZAJ2W_UoIGjEGMNmVgp-10" value="public SDKs" style="swimlane;whiteSpace=wrap;html=1;startSize=20;" vertex="1" parent="1">
          <mxGeometry x="20" y="150" width="110" height="80" as="geometry" />
        </mxCell>
        <mxCell id="VZAJ2W_UoIGjEGMNmVgp-11" value="public SDKs" style="swimlane;whiteSpace=wrap;html=1;startSize=20;" vertex="1" parent="1">
          <mxGeometry x="37" y="162" width="110" height="80" as="geometry" />
        </mxCell>
        <mxCell id="VZAJ2W_UoIGjEGMNmVgp-13" style="edgeStyle=orthogonalEdgeStyle;rounded=0;orthogonalLoop=1;jettySize=auto;html=1;exitX=1;exitY=0.5;exitDx=0;exitDy=0;entryX=0;entryY=0.5;entryDx=0;entryDy=0;" edge="1" parent="1" source="VZAJ2W_UoIGjEGMNmVgp-12" target="VZAJ2W_UoIGjEGMNmVgp-3">
          <mxGeometry relative="1" as="geometry" />
        </mxCell>
        <mxCell id="VZAJ2W_UoIGjEGMNmVgp-12" value="public SDKs" style="swimlane;whiteSpace=wrap;html=1;startSize=20;" vertex="1" parent="1">
          <mxGeometry x="60" y="180" width="110" height="80" as="geometry" />
        </mxCell>
        <mxCell id="VZAJ2W_UoIGjEGMNmVgp-21" value="Messaging Queue" style="shape=process;whiteSpace=wrap;html=1;backgroundOutline=1;" vertex="1" parent="1">
          <mxGeometry x="770" y="150" width="120" height="40" as="geometry" />
        </mxCell>
        <mxCell id="VZAJ2W_UoIGjEGMNmVgp-22" value="Event Processor Workers" style="rounded=0;whiteSpace=wrap;html=1;" vertex="1" parent="1">
          <mxGeometry x="720" y="230" width="120" height="60" as="geometry" />
        </mxCell>
        <mxCell id="VZAJ2W_UoIGjEGMNmVgp-23" value="Event Processor Workers" style="rounded=0;whiteSpace=wrap;html=1;" vertex="1" parent="1">
          <mxGeometry x="737" y="243" width="120" height="60" as="geometry" />
        </mxCell>
        <mxCell id="VZAJ2W_UoIGjEGMNmVgp-63" style="edgeStyle=orthogonalEdgeStyle;rounded=0;orthogonalLoop=1;jettySize=auto;html=1;exitX=0.75;exitY=1;exitDx=0;exitDy=0;entryX=0;entryY=0.75;entryDx=0;entryDy=0;" edge="1" parent="1" source="VZAJ2W_UoIGjEGMNmVgp-24" target="VZAJ2W_UoIGjEGMNmVgp-60">
          <mxGeometry relative="1" as="geometry" />
        </mxCell>
        <mxCell id="VZAJ2W_UoIGjEGMNmVgp-24" value="Event Processor Workers" style="rounded=0;whiteSpace=wrap;html=1;" vertex="1" parent="1">
          <mxGeometry x="757" y="253" width="120" height="60" as="geometry" />
        </mxCell>
        <mxCell id="VZAJ2W_UoIGjEGMNmVgp-27" style="edgeStyle=orthogonalEdgeStyle;rounded=0;orthogonalLoop=1;jettySize=auto;html=1;exitX=1;exitY=0.5;exitDx=0;exitDy=0;entryX=0.5;entryY=0;entryDx=0;entryDy=0;" edge="1" parent="1" source="VZAJ2W_UoIGjEGMNmVgp-21" target="VZAJ2W_UoIGjEGMNmVgp-24">
          <mxGeometry relative="1" as="geometry" />
        </mxCell>
        <mxCell id="VZAJ2W_UoIGjEGMNmVgp-28" value="Database" style="shape=cylinder3;whiteSpace=wrap;html=1;boundedLbl=1;backgroundOutline=1;size=15;" vertex="1" parent="1">
          <mxGeometry x="960" y="243" width="60" height="80" as="geometry" />
        </mxCell>
        <mxCell id="VZAJ2W_UoIGjEGMNmVgp-29" style="edgeStyle=orthogonalEdgeStyle;rounded=0;orthogonalLoop=1;jettySize=auto;html=1;exitX=1;exitY=0.5;exitDx=0;exitDy=0;entryX=0;entryY=0.5;entryDx=0;entryDy=0;entryPerimeter=0;" edge="1" parent="1" source="VZAJ2W_UoIGjEGMNmVgp-24" target="VZAJ2W_UoIGjEGMNmVgp-28">
          <mxGeometry relative="1" as="geometry" />
        </mxCell>
        <mxCell id="VZAJ2W_UoIGjEGMNmVgp-37" style="edgeStyle=orthogonalEdgeStyle;rounded=0;orthogonalLoop=1;jettySize=auto;html=1;exitX=1;exitY=0.5;exitDx=0;exitDy=0;" edge="1" parent="1" source="VZAJ2W_UoIGjEGMNmVgp-30" target="VZAJ2W_UoIGjEGMNmVgp-35">
          <mxGeometry relative="1" as="geometry" />
        </mxCell>
        <mxCell id="VZAJ2W_UoIGjEGMNmVgp-30" value="Authorization&amp;nbsp;&lt;div&gt;Service&lt;/div&gt;" style="rounded=0;whiteSpace=wrap;html=1;" vertex="1" parent="1">
          <mxGeometry x="610" y="330" width="120" height="60" as="geometry" />
        </mxCell>
        <mxCell id="VZAJ2W_UoIGjEGMNmVgp-40" style="edgeStyle=orthogonalEdgeStyle;rounded=0;orthogonalLoop=1;jettySize=auto;html=1;exitX=1;exitY=0.5;exitDx=0;exitDy=0;" edge="1" parent="1" source="VZAJ2W_UoIGjEGMNmVgp-33" target="VZAJ2W_UoIGjEGMNmVgp-36">
          <mxGeometry relative="1" as="geometry" />
        </mxCell>
        <mxCell id="VZAJ2W_UoIGjEGMNmVgp-33" value="&lt;div&gt;Identity&lt;/div&gt;&lt;div&gt;Service&lt;/div&gt;" style="rounded=0;whiteSpace=wrap;html=1;" vertex="1" parent="1">
          <mxGeometry x="610" y="423" width="120" height="60" as="geometry" />
        </mxCell>
        <mxCell id="VZAJ2W_UoIGjEGMNmVgp-35" value="Database" style="shape=cylinder3;whiteSpace=wrap;html=1;boundedLbl=1;backgroundOutline=1;size=15;" vertex="1" parent="1">
          <mxGeometry x="767" y="330" width="60" height="60" as="geometry" />
        </mxCell>
        <mxCell id="VZAJ2W_UoIGjEGMNmVgp-36" value="Database" style="shape=cylinder3;whiteSpace=wrap;html=1;boundedLbl=1;backgroundOutline=1;size=15;" vertex="1" parent="1">
          <mxGeometry x="768.5" y="425" width="63" height="57" as="geometry" />
        </mxCell>
        <mxCell id="VZAJ2W_UoIGjEGMNmVgp-41" value="" style="swimlane;startSize=0;" vertex="1" parent="1">
          <mxGeometry x="390" y="117" width="830" height="570" as="geometry">
            <mxRectangle x="390" y="117" width="50" height="40" as="alternateBounds" />
          </mxGeometry>
        </mxCell>
        <mxCell id="VZAJ2W_UoIGjEGMNmVgp-43" style="edgeStyle=orthogonalEdgeStyle;rounded=0;orthogonalLoop=1;jettySize=auto;html=1;exitX=1;exitY=0.5;exitDx=0;exitDy=0;" edge="1" parent="VZAJ2W_UoIGjEGMNmVgp-41" source="VZAJ2W_UoIGjEGMNmVgp-44" target="VZAJ2W_UoIGjEGMNmVgp-45">
          <mxGeometry relative="1" as="geometry" />
        </mxCell>
        <mxCell id="VZAJ2W_UoIGjEGMNmVgp-44" value="&lt;div&gt;&lt;span style=&quot;background-color: transparent; color: light-dark(rgb(0, 0, 0), rgb(255, 255, 255));&quot;&gt;Analytics&lt;/span&gt;&lt;/div&gt;&lt;div&gt;&lt;span style=&quot;background-color: transparent; color: light-dark(rgb(0, 0, 0), rgb(255, 255, 255));&quot;&gt;Service&lt;/span&gt;&lt;/div&gt;" style="rounded=0;whiteSpace=wrap;html=1;" vertex="1" parent="VZAJ2W_UoIGjEGMNmVgp-41">
          <mxGeometry x="220" y="396" width="120" height="60" as="geometry" />
        </mxCell>
        <mxCell id="VZAJ2W_UoIGjEGMNmVgp-45" value="Database" style="shape=cylinder3;whiteSpace=wrap;html=1;boundedLbl=1;backgroundOutline=1;size=15;" vertex="1" parent="VZAJ2W_UoIGjEGMNmVgp-41">
          <mxGeometry x="378.5" y="398" width="63" height="57" as="geometry" />
        </mxCell>
        <mxCell id="VZAJ2W_UoIGjEGMNmVgp-46" value="&lt;div&gt;&lt;span style=&quot;background-color: transparent; color: light-dark(rgb(0, 0, 0), rgb(255, 255, 255));&quot;&gt;Analytics&lt;/span&gt;&lt;/div&gt;&lt;div&gt;&lt;span style=&quot;background-color: transparent; color: light-dark(rgb(0, 0, 0), rgb(255, 255, 255));&quot;&gt;Service&lt;/span&gt;&lt;/div&gt;" style="rounded=0;whiteSpace=wrap;html=1;" vertex="1" parent="VZAJ2W_UoIGjEGMNmVgp-41">
          <mxGeometry x="230" y="410" width="120" height="60" as="geometry" />
        </mxCell>
        <mxCell id="VZAJ2W_UoIGjEGMNmVgp-48" value="Cache" style="shape=cylinder3;whiteSpace=wrap;html=1;boundedLbl=1;backgroundOutline=1;size=15;" vertex="1" parent="VZAJ2W_UoIGjEGMNmVgp-41">
          <mxGeometry x="390.5" y="463" width="63" height="57" as="geometry" />
        </mxCell>
        <mxCell id="VZAJ2W_UoIGjEGMNmVgp-50" style="edgeStyle=orthogonalEdgeStyle;rounded=0;orthogonalLoop=1;jettySize=auto;html=1;exitX=1;exitY=0.5;exitDx=0;exitDy=0;entryX=0;entryY=0.5;entryDx=0;entryDy=0;entryPerimeter=0;" edge="1" parent="VZAJ2W_UoIGjEGMNmVgp-41" source="VZAJ2W_UoIGjEGMNmVgp-46" target="VZAJ2W_UoIGjEGMNmVgp-48">
          <mxGeometry relative="1" as="geometry" />
        </mxCell>
        <mxCell id="VZAJ2W_UoIGjEGMNmVgp-52" value="Analytics Processor Workers" style="rounded=0;whiteSpace=wrap;html=1;" vertex="1" parent="VZAJ2W_UoIGjEGMNmVgp-41">
          <mxGeometry x="502" y="293" width="120" height="60" as="geometry" />
        </mxCell>
        <mxCell id="VZAJ2W_UoIGjEGMNmVgp-54" value="Analytics Processor Workers" style="rounded=0;whiteSpace=wrap;html=1;" vertex="1" parent="VZAJ2W_UoIGjEGMNmVgp-41">
          <mxGeometry x="512" y="303" width="120" height="60" as="geometry" />
        </mxCell>
        <mxCell id="VZAJ2W_UoIGjEGMNmVgp-62" style="edgeStyle=orthogonalEdgeStyle;rounded=0;orthogonalLoop=1;jettySize=auto;html=1;exitX=1;exitY=0.5;exitDx=0;exitDy=0;entryX=0;entryY=0.5;entryDx=0;entryDy=0;" edge="1" parent="VZAJ2W_UoIGjEGMNmVgp-41" source="VZAJ2W_UoIGjEGMNmVgp-53" target="VZAJ2W_UoIGjEGMNmVgp-60">
          <mxGeometry relative="1" as="geometry" />
        </mxCell>
        <mxCell id="VZAJ2W_UoIGjEGMNmVgp-53" value="Analytics Processor Workers" style="rounded=0;whiteSpace=wrap;html=1;" vertex="1" parent="VZAJ2W_UoIGjEGMNmVgp-41">
          <mxGeometry x="522" y="313" width="120" height="60" as="geometry" />
        </mxCell>
        <mxCell id="VZAJ2W_UoIGjEGMNmVgp-56" style="edgeStyle=orthogonalEdgeStyle;rounded=0;orthogonalLoop=1;jettySize=auto;html=1;exitX=0.5;exitY=1;exitDx=0;exitDy=0;entryX=1;entryY=0.5;entryDx=0;entryDy=0;entryPerimeter=0;" edge="1" parent="VZAJ2W_UoIGjEGMNmVgp-41" source="VZAJ2W_UoIGjEGMNmVgp-53" target="VZAJ2W_UoIGjEGMNmVgp-45">
          <mxGeometry relative="1" as="geometry" />
        </mxCell>
        <mxCell id="VZAJ2W_UoIGjEGMNmVgp-57" style="edgeStyle=orthogonalEdgeStyle;rounded=0;orthogonalLoop=1;jettySize=auto;html=1;exitX=0.5;exitY=1;exitDx=0;exitDy=0;entryX=1;entryY=0.5;entryDx=0;entryDy=0;entryPerimeter=0;" edge="1" parent="VZAJ2W_UoIGjEGMNmVgp-41" source="VZAJ2W_UoIGjEGMNmVgp-53" target="VZAJ2W_UoIGjEGMNmVgp-48">
          <mxGeometry relative="1" as="geometry" />
        </mxCell>
        <mxCell id="VZAJ2W_UoIGjEGMNmVgp-61" style="edgeStyle=orthogonalEdgeStyle;rounded=0;orthogonalLoop=1;jettySize=auto;html=1;entryX=0.5;entryY=1;entryDx=0;entryDy=0;" edge="1" parent="VZAJ2W_UoIGjEGMNmVgp-41" source="VZAJ2W_UoIGjEGMNmVgp-60" target="VZAJ2W_UoIGjEGMNmVgp-59">
          <mxGeometry relative="1" as="geometry" />
        </mxCell>
        <mxCell id="VZAJ2W_UoIGjEGMNmVgp-59" value="Notification&lt;br&gt;Service" style="rounded=0;whiteSpace=wrap;html=1;" vertex="1" parent="VZAJ2W_UoIGjEGMNmVgp-41">
          <mxGeometry x="680" y="223" width="120" height="60" as="geometry" />
        </mxCell>
        <mxCell id="VZAJ2W_UoIGjEGMNmVgp-60" value="Messaging Queue" style="shape=process;whiteSpace=wrap;html=1;backgroundOutline=1;" vertex="1" parent="VZAJ2W_UoIGjEGMNmVgp-41">
          <mxGeometry x="680" y="373" width="120" height="40" as="geometry" />
        </mxCell>
        <mxCell id="VZAJ2W_UoIGjEGMNmVgp-42" value="Ingestion Service" style="rounded=0;whiteSpace=wrap;html=1;" vertex="1" parent="1">
          <mxGeometry x="617" y="150" width="120" height="60" as="geometry" />
        </mxCell>
        <mxCell id="VZAJ2W_UoIGjEGMNmVgp-55" style="edgeStyle=orthogonalEdgeStyle;rounded=0;orthogonalLoop=1;jettySize=auto;html=1;exitX=0.5;exitY=0;exitDx=0;exitDy=0;entryX=0.5;entryY=1;entryDx=0;entryDy=0;entryPerimeter=0;" edge="1" parent="1" source="VZAJ2W_UoIGjEGMNmVgp-52" target="VZAJ2W_UoIGjEGMNmVgp-28">
          <mxGeometry relative="1" as="geometry" />
        </mxCell>
      </root>
    </mxGraphModel>
  </diagram>
</mxfile>
